<?xml version="1.0" encoding="UTF-8"?>
<svg xmlns="http://www.w3.org/2000/svg" viewBox="0 0 360 520" width="360" height="520">
  <rect width="360" height="520" fill="#FBFAF7"/>
  <rect x="0" y="0" width="360" height="6" fill="#1F3A2A"/>

  <text x="180" y="50" text-anchor="middle" font-family="sans-serif" font-size="18" font-weight="700" fill="#1F3A2A">〇〇飲食店</text>
  <text x="180" y="70" text-anchor="middle" font-family="sans-serif" font-size="11" fill="#6B7568">東京都港区××1-2-3</text>
  <text x="180" y="86" text-anchor="middle" font-family="sans-serif" font-size="11" fill="#6B7568">TEL 03-xxxx-xxxx</text>

  <line x1="40" y1="106" x2="320" y2="106" stroke="#1F3A2A" stroke-dasharray="2,3"/>

  <text x="40" y="130" font-family="sans-serif" font-size="11" fill="#6B7568">2026/05/17 19:42  伝票 #00482</text>
  <text x="40" y="148" font-family="sans-serif" font-size="11" fill="#6B7568">担当: 田中  人数: 3名</text>

  <line x1="40" y1="166" x2="320" y2="166" stroke="#1F3A2A"/>

  <g font-family="sans-serif" font-size="12" fill="#2A2A2A">
    <text x="40" y="190">コース料理 ×3</text>
    <text x="320" y="190" text-anchor="end">¥ 18,000</text>

    <text x="40" y="212">ドリンク（生ビール）×4</text>
    <text x="320" y="212" text-anchor="end">¥  3,200</text>

    <text x="40" y="234">ドリンク（日本酒）×2</text>
    <text x="320" y="234" text-anchor="end">¥  3,600</text>

    <text x="40" y="256">突き出し ×3</text>
    <text x="320" y="256" text-anchor="end">¥  1,200</text>
  </g>

  <line x1="40" y1="276" x2="320" y2="276" stroke="#6B7568" stroke-dasharray="2,3"/>

  <g font-family="sans-serif" font-size="12" fill="#2A2A2A">
    <text x="40" y="298">小計</text>
    <text x="320" y="298" text-anchor="end">¥ 26,000</text>

    <text x="40" y="318">サービス料 10%</text>
    <text x="320" y="318" text-anchor="end">¥  2,600</text>

    <text x="40" y="338">消費税</text>
    <text x="320" y="338" text-anchor="end">¥     0</text>
  </g>

  <line x1="40" y1="354" x2="320" y2="354" stroke="#1F3A2A"/>

  <text x="40" y="382" font-family="sans-serif" font-size="14" font-weight="700" fill="#1F3A2A">合計</text>
  <text x="320" y="382" text-anchor="end" font-family="sans-serif" font-size="16" font-weight="700" fill="#1F3A2A">¥ 28,600</text>

  <line x1="40" y1="402" x2="320" y2="402" stroke="#1F3A2A" stroke-dasharray="2,3"/>

  <text x="40" y="426" font-family="sans-serif" font-size="11" fill="#6B7568">お支払い: 法人カード（VISA ****-1234）</text>

  <text x="180" y="468" text-anchor="middle" font-family="sans-serif" font-size="11" fill="#6B7568">ご来店ありがとうございました</text>

  <g transform="translate(300,420) rotate(-8)">
    <rect x="-26" y="-14" width="52" height="28" fill="none" stroke="#B83A1A" stroke-width="1.5"/>
    <text x="0" y="4" text-anchor="middle" font-family="sans-serif" font-size="10" font-weight="700" fill="#B83A1A">領収済</text>
  </g>
</svg>
