<?xml version="1.0" encoding="UTF-8"?>
<svg xmlns="http://www.w3.org/2000/svg" viewBox="0 0 360 480" width="360" height="480">
  <defs>
    <linearGradient id="bg" x1="0" y1="0" x2="0" y2="1">
      <stop offset="0" stop-color="#FFFDF6"/>
      <stop offset="1" stop-color="#F4EFDC"/>
    </linearGradient>
    <pattern id="dots" width="6" height="6" patternUnits="userSpaceOnUse">
      <circle cx="1" cy="1" r="0.6" fill="#D4C896"/>
    </pattern>
  </defs>
  <rect width="360" height="480" fill="url(#bg)"/>
  <rect x="0" y="0" width="360" height="14" fill="url(#dots)"/>
  <rect x="0" y="466" width="360" height="14" fill="url(#dots)"/>

  <text x="180" y="58" text-anchor="middle" font-family="serif" font-size="22" font-weight="700" fill="#3B2E16">領 収 書</text>
  <line x1="60" y1="78" x2="300" y2="78" stroke="#8B7B4A" stroke-width="1"/>

  <text x="40" y="112" font-family="sans-serif" font-size="12" fill="#5C4A1F">2026年5月17日</text>
  <text x="320" y="112" text-anchor="end" font-family="sans-serif" font-size="12" fill="#5C4A1F">No. 2026-0517-001</text>

  <text x="40" y="148" font-family="sans-serif" font-size="14" fill="#3B2E16">由仁場 技朗 様</text>

  <rect x="40" y="172" width="280" height="60" fill="#FFFFFF" stroke="#C9B97E" stroke-width="1"/>
  <text x="180" y="200" text-anchor="middle" font-family="serif" font-size="14" fill="#5C4A1F">¥ 5,240</text>
  <text x="180" y="222" text-anchor="middle" font-family="sans-serif" font-size="11" fill="#7A6B3A">（税込）</text>

  <text x="40" y="258" font-family="sans-serif" font-size="12" fill="#5C4A1F">但し</text>
  <text x="40" y="278" font-family="sans-serif" font-size="13" fill="#3B2E16">タクシー代として</text>
  <line x1="40" y1="290" x2="320" y2="290" stroke="#C9B97E" stroke-dasharray="2,3"/>

  <text x="40" y="316" font-family="sans-serif" font-size="11" fill="#7A6B3A">乗車区間</text>
  <text x="40" y="334" font-family="sans-serif" font-size="13" fill="#3B2E16">羽田空港 → 取引先（港区）</text>

  <text x="40" y="372" font-family="sans-serif" font-size="11" fill="#7A6B3A">内訳</text>
  <text x="40" y="390" font-family="sans-serif" font-size="12" fill="#3B2E16">小計　　¥ 4,764</text>
  <text x="40" y="408" font-family="sans-serif" font-size="12" fill="#3B2E16">消費税　¥  476</text>
  <line x1="40" y1="416" x2="320" y2="416" stroke="#8B7B4A"/>
  <text x="40" y="434" font-family="sans-serif" font-size="13" font-weight="700" fill="#3B2E16">合計　　¥ 5,240</text>

  <g transform="translate(260,392) rotate(-12)">
    <circle cx="0" cy="0" r="28" fill="none" stroke="#B83A1A" stroke-width="2"/>
    <text y="-4" text-anchor="middle" font-family="sans-serif" font-size="9" fill="#B83A1A" font-weight="700">UNIVA</text>
    <text y="10" text-anchor="middle" font-family="sans-serif" font-size="9" fill="#B83A1A" font-weight="700">TAXI</text>
  </g>
</svg>
